<?xml version="1.0" encoding="UTF-8"?>
<svg width="200px" height="200px" viewBox="0 0 200 200" version="1.1" xmlns="http://www.w3.org/2000/svg" xmlns:xlink="http://www.w3.org/1999/xlink">
    <!-- Generator: Sketch 47.1 (45422) - http://www.bohemiancoding.com/sketch -->
    <title>arcticbear.ru/polarbear-logo-mini-3-transparent</title>
    <desc>Created with Sketch.</desc>
    <defs></defs>
    <g id="sign" stroke="none" stroke-width="1" fill="none" fill-rule="evenodd">
        <g id="arcticbear.ru/polarbear-logo-mini-3-transparent" fill="#000000">
            <circle id="Oval" cx="60" cy="67" r="5"></circle>
            <circle id="Oval" cx="140" cy="67" r="5"></circle>
            <g id="Group-2" transform="translate(75.000000, 89.000000)">
                <path d="M32,-3.55271368e-15 L11,-3.55271368e-15 L11,-3.55271368e-15 C6.02943725,-2.63963611e-15 2,4.02943725 2,9 L2,20.1848241 L2,20.1848241 C2,30.8991483 10.6856759,39.5848241 21.4,39.5848241 L21.4,39.5848241 C21.4,41.2631789 21.268589,42.7736788 21.0174695,44.1233146 C19.3221343,53.234855 14.1707865,55.0146144 5.16427255,51.6136708 C3.30712023,51.279119 1.98695686,51.883117 1.20378244,53.4256648 C0.420608019,54.9682126 0.686013872,56.2707188 2,57.3331835 C9.87893742,61.7839765 23.9825582,61.8405114 28.6839387,48.2377136 C29.5239902,45.8071401 30,42.9404621 30,39.5848241 L32,-3.55271368e-15 Z" id=","></path>
                <path d="M50.8139743,-3.55271368e-15 L29.8139743,-3.55271368e-15 L29.8139743,-5.32907052e-15 C24.8434115,-4.41599295e-15 20.8139743,4.02943725 20.8139743,9 L20.8139743,20.1848241 L20.8139743,20.1848241 C20.8139743,30.8991483 29.4996501,39.5848241 40.2139743,39.5848241 L40.2139743,39.5848241 C40.2139743,51.7752762 34.3188396,55.518375 23.9782468,51.6136708 C21.8049958,50.7531411 20.2861858,51.274089 19.4218167,53.1765144 C18.5574476,55.0789399 19.0215002,56.4644962 20.8139743,57.3331835 C30.1007351,62.5792526 48.8139743,61.7204185 48.8139743,39.5848241 L50.8139743,-3.55271368e-15 Z" id="," transform="translate(34.906987, 30.000000) scale(-1, 1) translate(-34.906987, -30.000000) "></path>
            </g>
        </g>
    </g>
</svg>