<?xml version="1.0" encoding="UTF-8"?>
<svg width="333px" height="228px" viewBox="0 0 333 228" version="1.1" xmlns="http://www.w3.org/2000/svg" xmlns:xlink="http://www.w3.org/1999/xlink">
    <!-- Generator: Sketch 47.1 (45422) - http://www.bohemiancoding.com/sketch -->
    <title>arcticbear.ru/polar-bear-logo-solid-white@1x</title>
    <desc>Created with Sketch.</desc>
    <defs></defs>
    <g id="sign" stroke="none" stroke-width="1" fill="none" fill-rule="evenodd">
        <path d="M127.847738,56.3933381 C152.159336,55.7357822 154.307544,55.9721735 176.345307,58.0624067 C212.386979,61.4808797 212.899637,49.5161757 227.702718,50.1711401 C242.505799,50.8261044 240.577235,49.1160356 247.723397,45.3627848 C251.504077,43.3771258 253.743097,41.5243422 261.588751,35.6196767 C263.600103,34.3876225 257.051572,29.54627 264.498245,24.6269143 C271.944918,19.7075586 274.745972,26.1622318 277.49101,24.6269143 C284.20618,19.7251424 293.601485,15.0362605 296.927205,13.3144208 C300.252925,11.5925811 301.692156,11.2882356 302.62569,11.2196495 C303.451142,11.159004 304.186653,11.5515521 305.613282,10.9097445 C307.448795,10.08399 313.098037,6.14033634 316.022698,4.54779536 C318.94736,2.95525437 323.478522,0.555464474 324.803763,0.145103544 C326.129003,-0.265257387 326.650489,0.223958992 327.715612,1.24451008 C328.780734,2.26506117 327.967659,3.89221691 330.352059,6.50058467 C332.736459,9.10895243 332.211698,13.7724885 331.26139,16.7640841 C330.311082,19.7556797 326.96725,29.1433336 325.111612,39.0770496 C323.255974,49.0107656 319.4754,53.9807731 316.022698,61.549476 C312.569997,69.1181789 301.92299,77.6411987 293.75326,94.156159 C288.711993,104.346988 285.616741,112.123973 278.587448,118.741406 C276.075437,121.106234 281.020803,125.379707 283.470935,135.765753 C286.421521,145.970345 295.332597,169.386266 303.84891,188.932994 C310.198856,203.507455 310.002185,209.492297 315.705558,215.136479 C318.499092,217.901021 321.246187,217.528963 325.961111,218.827229 C330.676036,220.125496 331.167872,224.296395 328.496421,226.983025 C325.511383,226.983025 318.445296,226.983025 315.705558,226.983025 C312.96582,226.983025 306.574516,226.983025 300.881062,226.983025 C295.187608,226.983025 294.392343,226.083356 293.75326,224.315422 C293.114177,222.547488 292.779572,221.640674 291.366535,220.340431 C287.626752,216.899172 283.470935,213.624129 275.853417,208.881241 C270.765181,205.713157 266.210392,198.371974 261.588751,190.962112 C247.553203,168.458963 238.459732,156.444002 229.232675,161.296066 C225.818703,163.09131 213.911617,173.857889 210.433653,180.82948 C207.378966,186.952608 203.891342,202.449595 202.986628,209.49465 C202.508386,213.218754 203.874831,214.613319 204.873388,216.70008 C205.871944,218.786841 210.070895,219.518063 212.618028,220.340431 C215.165162,221.162799 215.044529,225.102746 213.449293,226.983025 C211.864149,226.983025 208.46641,226.983025 206.778946,226.983025 C205.091481,226.983025 188.136167,227.215953 179.060757,226.983025 C169.985348,226.750098 175.522969,224.540586 174.340164,215.136479 C173.157359,205.732372 171.548706,201.96687 168.387582,193.52956 C164.980875,184.436764 170.469846,175.842681 167.574389,174.258781 C164.678931,172.674881 162.227314,175.967438 155.320062,177.814894 C144.541573,180.697774 137.629018,179.828382 123.830131,178.837314 C120.766013,178.617242 113.630303,175.810641 111.389484,178.837314 C109.148665,181.863988 109.238857,187.234677 107.454113,193.52956 C105.501304,200.417218 103.928559,204.883343 103.170064,211.284549 C102.41157,217.685754 108.872699,217.188439 112.837814,219.772037 C116.802929,222.355635 114.822525,226.983025 109.988679,226.983025 C105.154833,226.983025 76.1816988,227.037417 69.2309434,226.983025 C66.3056913,226.960134 62.6069005,226.393155 61.9211494,223.49784 C61.2353982,220.602525 63.500146,218.150292 64.0523817,213.624129 C64.9812462,206.011092 65.8602487,195.15143 65.6790309,194.291462 C65.4978131,193.431494 65.7261853,189.305998 64.9020751,189.305998 C64.0779649,189.305998 59.1208178,194.131424 54.2446294,196.149306 C43.8481599,200.451611 35.4949117,205.222891 27.6332405,206.919787 C21.3962349,208.266008 15.264514,213.096356 12.9941343,215.136479 C10.7289976,217.17189 10.7623962,220.131313 9.98184363,222.597174 C9.20129107,225.063035 7.92458603,226.238078 4.34849009,226.300594 C3.2310457,226.320128 -0.744545035,224.725388 0.122697372,219.772037 C1.15284599,213.888229 0.844339507,208.43546 0.925653178,196.149306 C1.00696685,183.863152 7.58400082,181.371006 12.9941343,177.814894 C24.0728217,170.532807 26.6420087,165.420482 31.9065708,161.296066 C37.1711329,157.17165 45.7910135,150.084616 44.7941119,141.598814 C43.9310589,134.252355 41.8686722,127.511157 41.756511,118.741406 C41.565692,103.821501 57.2802648,82.9731253 72.6764577,72.7444223 C88.0726507,62.5157193 103.536141,57.0508941 127.847738,56.3933381 Z" id="arcticbear.ru/polar-bear-logo-solid-white" fill="#FFFFFF"></path>
    </g>
</svg>